<svg xmlns="http://www.w3.org/2000/svg" xmlns:xlink="http://www.w3.org/1999/xlink"><symbol id="search" viewBox="0 0 30.239 30.239"><g><g>
	<path d="M20.194,3.46c-4.613-4.613-12.121-4.613-16.734,0c-4.612,4.614-4.612,12.121,0,16.735   c4.108,4.107,10.506,4.547,15.116,1.34c0.097,0.459,0.319,0.897,0.676,1.254l6.718,6.718c0.979,0.977,2.561,0.977,3.535,0   c0.978-0.978,0.978-2.56,0-3.535l-6.718-6.72c-0.355-0.354-0.794-0.577-1.253-0.674C24.743,13.967,24.303,7.57,20.194,3.46z    M18.073,18.074c-3.444,3.444-9.049,3.444-12.492,0c-3.442-3.444-3.442-9.048,0-12.492c3.443-3.443,9.048-3.443,12.492,0   C21.517,9.026,21.517,14.63,18.073,18.074z" data-original="#000000" class="active-path" data-old_color="#000000"/>
</g></g> </symbol><symbol id="envelope" viewBox="0 0 511.626 511.626"><g><g>
	<g>
		<path d="M49.106,178.729c6.472,4.567,25.981,18.131,58.528,40.685c32.548,22.554,57.482,39.92,74.803,52.099    c1.903,1.335,5.946,4.237,12.131,8.71c6.186,4.476,11.326,8.093,15.416,10.852c4.093,2.758,9.041,5.852,14.849,9.277    c5.806,3.422,11.279,5.996,16.418,7.7c5.14,1.718,9.898,2.569,14.275,2.569h0.287h0.288c4.377,0,9.137-0.852,14.277-2.569    c5.137-1.704,10.615-4.281,16.416-7.7c5.804-3.429,10.752-6.52,14.845-9.277c4.093-2.759,9.229-6.376,15.417-10.852    c6.184-4.477,10.232-7.375,12.135-8.71c17.508-12.179,62.051-43.11,133.615-92.79c13.894-9.703,25.502-21.411,34.827-35.116    c9.332-13.699,13.993-28.07,13.993-43.105c0-12.564-4.523-23.319-13.565-32.264c-9.041-8.947-19.749-13.418-32.117-13.418H45.679    c-14.655,0-25.933,4.948-33.832,14.844C3.949,79.562,0,91.934,0,106.779c0,11.991,5.236,24.985,15.703,38.974    C26.169,159.743,37.307,170.736,49.106,178.729z" data-original="#000000" class="hovered-path active-path" data-old_color="#000000"/>
		<path d="M483.072,209.275c-62.424,42.251-109.824,75.087-142.177,98.501c-10.849,7.991-19.65,14.229-26.409,18.699    c-6.759,4.473-15.748,9.041-26.98,13.702c-11.228,4.668-21.692,6.995-31.401,6.995h-0.291h-0.287    c-9.707,0-20.177-2.327-31.405-6.995c-11.228-4.661-20.223-9.229-26.98-13.702c-6.755-4.47-15.559-10.708-26.407-18.699    c-25.697-18.842-72.995-51.68-141.896-98.501C17.987,202.047,8.375,193.762,0,184.437v226.685c0,12.57,4.471,23.319,13.418,32.265    c8.945,8.949,19.701,13.422,32.264,13.422h420.266c12.56,0,23.315-4.473,32.261-13.422c8.949-8.949,13.418-19.694,13.418-32.265    V184.437C503.441,193.569,493.927,201.854,483.072,209.275z" data-original="#000000" class="hovered-path active-path" data-old_color="#000000"/>
	</g>
</g></g> </symbol><symbol id="location" viewBox="0 0 512 512"><g><g>
	<g>
		<path d="M256,0C153.755,0,70.573,83.182,70.573,185.426c0,126.888,165.939,313.167,173.004,321.035    c6.636,7.391,18.222,7.378,24.846,0c7.065-7.868,173.004-194.147,173.004-321.035C441.425,83.182,358.244,0,256,0z M256,278.719    c-51.442,0-93.292-41.851-93.292-93.293S204.559,92.134,256,92.134s93.291,41.851,93.291,93.293S307.441,278.719,256,278.719z" data-original="#000000" class="active-path" data-old_color="#000000"/>
	</g>
</g></g> </symbol><symbol id="phone" viewBox="0 0 348.077 348.077"><g><g>
	<g>
		<g>
			<path d="M340.273,275.083l-53.755-53.761c-10.707-10.664-28.438-10.34-39.518,0.744l-27.082,27.076     c-1.711-0.943-3.482-1.928-5.344-2.973c-17.102-9.476-40.509-22.464-65.14-47.113c-24.704-24.701-37.704-48.144-47.209-65.257     c-1.003-1.813-1.964-3.561-2.913-5.221l18.176-18.149l8.936-8.947c11.097-11.1,11.403-28.826,0.721-39.521L73.39,8.194     C62.708-2.486,44.969-2.162,33.872,8.938l-15.15,15.237l0.414,0.411c-5.08,6.482-9.325,13.958-12.484,22.02     C3.74,54.28,1.927,61.603,1.098,68.941C-6,127.785,20.89,181.564,93.866,254.541c100.875,100.868,182.167,93.248,185.674,92.876     c7.638-0.913,14.958-2.738,22.397-5.627c7.992-3.122,15.463-7.361,21.941-12.43l0.331,0.294l15.348-15.029     C350.631,303.527,350.95,285.795,340.273,275.083z" data-original="#000000" class="active-path" data-old_color="#000000"/>
		</g>
	</g>
</g></g> </symbol><symbol id="arrow" viewBox="0 0 451.846 451.847"><g><g>
	<path d="M345.441,248.292L151.154,442.573c-12.359,12.365-32.397,12.365-44.75,0c-12.354-12.354-12.354-32.391,0-44.744   L278.318,225.92L106.409,54.017c-12.354-12.359-12.354-32.394,0-44.748c12.354-12.359,32.391-12.359,44.75,0l194.287,194.284   c6.177,6.18,9.262,14.271,9.262,22.366C354.708,234.018,351.617,242.115,345.441,248.292z" data-original="#000000" class="active-path" data-old_color="#000000"/>
</g></g> </symbol></svg>